<?xml version="1.0" encoding="UTF-8"?>
<svg version="1.1" xmlns="http://www.w3.org/2000/svg" width="256" height="256">
<path d="M0 0 C9.5694998 8.05369562 16.61500162 18.19558791 23.67578125 28.42578125 C24.48184814 29.55608765 24.48184814 29.55608765 25.30419922 30.70922852 C28.72638342 35.61598226 31.08244665 40.30641183 32.92578125 45.98828125 C33.168125 46.69146484 33.41046875 47.39464844 33.66015625 48.11914062 C42.58844966 74.49157252 39.98978364 102.60769926 28.15234375 127.6484375 C23.90117157 136.02105126 18.6760858 143.25421725 12.67578125 150.42578125 C12.08667969 151.13089844 11.49757812 151.83601562 10.890625 152.5625 C0.17381991 164.20695565 -14.39696404 173.36225985 -29.32421875 178.42578125 C-30.26990723 178.77229736 -31.2155957 179.11881348 -32.18994141 179.47583008 C-41.97386377 182.71863741 -51.21158131 183.07416659 -61.44580078 183.00219727 C-64.18906276 182.98833258 -66.92889872 183.02252494 -69.671875 183.06054688 C-84.11871883 183.12446628 -96.64234183 180.46621004 -109.51171875 173.67578125 C-110.16696533 173.33635498 -110.82221191 172.99692871 -111.49731445 172.6472168 C-136.05216132 159.61538133 -153.99394687 138.41878094 -162.60571289 111.90869141 C-164.96404948 104.10608171 -166.19615024 96.60246307 -166.32421875 88.42578125 C-166.35128906 87.21148437 -166.37835938 85.9971875 -166.40625 84.74609375 C-166.44873878 80.96845469 -166.40457783 77.20265809 -166.32421875 73.42578125 C-166.3190625 72.3790625 -166.31390625 71.33234375 -166.30859375 70.25390625 C-165.44952066 46.07713487 -151.91744947 22.12018201 -134.63671875 5.73828125 C-96.28445512 -26.79752534 -40.66462045 -32.27369966 0 0 Z " fill="#041024" transform="translate(191.32421875,42.57421875)"/>
<path d="M0 0 C9.5694998 8.05369562 16.61500162 18.19558791 23.67578125 28.42578125 C24.48184814 29.55608765 24.48184814 29.55608765 25.30419922 30.70922852 C28.72638342 35.61598226 31.08244665 40.30641183 32.92578125 45.98828125 C33.168125 46.69146484 33.41046875 47.39464844 33.66015625 48.11914062 C42.58844966 74.49157252 39.98978364 102.60769926 28.15234375 127.6484375 C23.90117157 136.02105126 18.6760858 143.25421725 12.67578125 150.42578125 C12.08667969 151.13089844 11.49757812 151.83601562 10.890625 152.5625 C0.17381991 164.20695565 -14.39696404 173.36225985 -29.32421875 178.42578125 C-30.26990723 178.77229736 -31.2155957 179.11881348 -32.18994141 179.47583008 C-41.97386377 182.71863741 -51.21158131 183.07416659 -61.44580078 183.00219727 C-64.18906276 182.98833258 -66.92889872 183.02252494 -69.671875 183.06054688 C-84.11871883 183.12446628 -96.64234183 180.46621004 -109.51171875 173.67578125 C-110.16696533 173.33635498 -110.82221191 172.99692871 -111.49731445 172.6472168 C-136.05216132 159.61538133 -153.99394687 138.41878094 -162.60571289 111.90869141 C-164.96404948 104.10608171 -166.19615024 96.60246307 -166.32421875 88.42578125 C-166.35128906 87.21148437 -166.37835938 85.9971875 -166.40625 84.74609375 C-166.44873878 80.96845469 -166.40457783 77.20265809 -166.32421875 73.42578125 C-166.3190625 72.3790625 -166.31390625 71.33234375 -166.30859375 70.25390625 C-165.44952066 46.07713487 -151.91744947 22.12018201 -134.63671875 5.73828125 C-96.28445512 -26.79752534 -40.66462045 -32.27369966 0 0 Z M-129.32421875 25.42578125 C-146.15100369 46.11166021 -150.70341799 70.26613913 -148.32421875 96.42578125 C-147.22136098 102.78647492 -145.06314295 108.60218501 -142.32421875 114.42578125 C-142.04094727 115.03969727 -141.75767578 115.65361328 -141.46582031 116.28613281 C-132.00027681 136.31231706 -115.22187027 152.69759314 -94.32421875 160.42578125 C-93.23753906 160.83570313 -93.23753906 160.83570313 -92.12890625 161.25390625 C-72.22047902 168.32937516 -49.15728805 167.58385513 -29.93969727 158.69042969 C-12.43536557 150.03922235 1.47187851 137.67505352 10.67578125 120.42578125 C11.15660156 119.53375 11.63742188 118.64171875 12.1328125 117.72265625 C21.05152391 99.72356495 23.50675997 75.76677353 17.67578125 56.42578125 C9.3110052 32.2406679 -6.49716505 14.65110633 -29.32421875 3.42578125 C-63.7702603 -12.40683941 -104.26514848 -2.38474775 -129.32421875 25.42578125 Z " fill="#744E00" transform="translate(191.32421875,42.57421875)"/>
<path d="M0 0 C5.58672194 -0.07436251 11.17315339 -0.12870254 16.76025391 -0.16479492 C18.65939353 -0.17984691 20.55849859 -0.20029316 22.45751953 -0.22631836 C25.19312081 -0.26285992 27.928261 -0.27976238 30.6640625 -0.29296875 C31.50804596 -0.30845261 32.35202942 -0.32393646 33.22158813 -0.33988953 C40.58322515 -0.34197366 45.53792731 1.98079807 51 7 C54.33074681 11.75351026 55.02925838 15.67262916 54.95703125 21.41796875 C53.02247971 28.6587188 46.80490052 33.58307071 41 38 C40.01 38 39.02 38 38 38 C43.04769478 44.11036737 48.59710084 49.65805529 54.28759766 55.16259766 C54.8810498 55.74444824 55.47450195 56.32629883 56.0859375 56.92578125 C56.6226709 57.44567627 57.1594043 57.96557129 57.71240234 58.5012207 C59 60 59 60 60 63 C46.01798127 64.20852983 46.01798127 64.20852983 41.90625 61.74609375 C40.4375 59.9375 40.4375 59.9375 38.97265625 57.7734375 C36.15765896 53.81571853 32.79321929 50.50028691 29.375 47.0625 C28.40518188 46.05014282 28.40518188 46.05014282 27.41577148 45.01733398 C26.79130127 44.38384033 26.16683105 43.75034668 25.5234375 43.09765625 C24.96575684 42.52539307 24.40807617 41.95312988 23.83349609 41.36352539 C21.59841759 39.70135316 19.73337141 39.36735716 17 39 C16.86722656 40.14597656 16.73445313 41.29195312 16.59765625 42.47265625 C16.41931812 44.00260968 16.24093004 45.53255729 16.0625 47.0625 C15.93198242 48.19075195 15.93198242 48.19075195 15.79882812 49.34179688 C15.26536361 53.90588219 14.67013702 58.45393534 14 63 C9.71 63 5.42 63 1 63 C1.43594506 51.12425531 2.82762945 39.68161523 5 28 C5.94319092 27.99589111 6.88638184 27.99178223 7.8581543 27.98754883 C11.37193676 27.96051141 14.88398682 27.91137159 18.3972168 27.84741211 C19.91501168 27.82427549 21.43296613 27.80984652 22.95092773 27.80444336 C25.1388643 27.79512078 27.32430687 27.75406849 29.51171875 27.70703125 C30.82615967 27.6913208 32.14060059 27.67561035 33.49487305 27.65942383 C37.83582166 26.84275585 39.36087616 25.48891982 42 22 C42.17761741 18.32416555 42.17761741 18.32416555 41 15 C37.45279884 12.63519923 36.11689819 12.81423504 31.93359375 12.9375 C10.82784478 13.16482309 10.82784478 13.16482309 5.92578125 9.78515625 C0 3.75556569 0 3.75556569 0 0 Z " fill="#ECCA85" transform="translate(63,90)"/>
<path d="M0 0 C15.7488128 14.26824892 26.83139301 35.69116222 28.15185547 57.02416992 C28.62211009 68.97903488 27.9307857 79.40066912 24.01074219 90.74438477 C23.77226562 91.49461914 23.53378906 92.24485352 23.28808594 93.01782227 C22.61901173 94.98097414 21.85312585 96.84902154 21.01074219 98.74438477 C20.61371094 99.64286133 20.21667969 100.54133789 19.80761719 101.46704102 C11.54808732 119.05257851 -1.16080415 132.34640504 -17.98925781 141.74438477 C-19.09785156 142.42243164 -20.20644531 143.10047852 -21.34863281 143.79907227 C-25.21920591 146.0081597 -29.21237476 147.24216148 -33.48925781 148.43188477 C-34.20984375 148.64393555 -34.93042969 148.85598633 -35.67285156 149.07446289 C-57.73386829 155.3975572 -81.39876839 152.74786584 -101.41113281 141.79907227 C-115.06329306 134.04378752 -126.81114396 123.23827263 -134.98925781 109.74438477 C-135.78589844 108.45467773 -135.78589844 108.45467773 -136.59863281 107.13891602 C-140.57076207 100.32533786 -143.02582566 93.3660714 -144.98925781 85.74438477 C-145.16730957 85.08607666 -145.34536133 84.42776855 -145.52880859 83.74951172 C-149.34907927 68.50086204 -148.05814011 51.51750884 -142.98925781 36.74438477 C-142.46332031 35.1859082 -142.46332031 35.1859082 -141.92675781 33.59594727 C-133.44874861 11.16454792 -115.87684889 -6.16267278 -94.46582031 -16.47045898 C-62.06507556 -30.36398222 -26.10979867 -22.72401583 0 0 Z M-124.98925781 8.74438477 C-141.81604275 29.43026372 -146.36845705 53.58474265 -143.98925781 79.74438477 C-142.88640004 86.10507844 -140.72818201 91.92078852 -137.98925781 97.74438477 C-137.70598633 98.35830078 -137.42271484 98.9722168 -137.13085938 99.60473633 C-127.66531587 119.63092058 -110.88690934 136.01619665 -89.98925781 143.74438477 C-88.90257813 144.15430664 -88.90257813 144.15430664 -87.79394531 144.57250977 C-67.88551808 151.64797868 -44.82232712 150.90245865 -25.60473633 142.0090332 C-8.10040463 133.35782586 5.80683944 120.99365704 15.01074219 103.74438477 C15.4915625 102.85235352 15.97238281 101.96032227 16.46777344 101.04125977 C25.38648484 83.04216847 27.8417209 59.08537705 22.01074219 39.74438477 C13.64596614 15.55927141 -2.16220411 -2.03029016 -24.98925781 -13.25561523 C-59.43529936 -29.08823589 -99.93018754 -19.06614423 -124.98925781 8.74438477 Z " fill="#9C7A2E" transform="translate(186.9892578125,59.255615234375)"/>
<path d="M0 0 C1.51980469 0.02030273 1.51980469 0.02030273 3.0703125 0.04101562 C5.54744404 0.07606937 8.02342927 0.12520236 10.5 0.1875 C7.97313115 5.3183377 5.59020241 9.27305693 0.5 12.1875 C-3.60512498 12.95938817 -7.71709665 13.01529528 -11.88452148 12.9753418 C-12.69219971 12.96929932 -13.49987793 12.96325684 -14.33203125 12.95703125 C-15.06139893 12.93229736 -15.7907666 12.90756348 -16.54223633 12.88208008 C-19.09700556 13.28063555 -19.94030999 14.16612492 -21.5 16.1875 C-22.08333333 18.6875 -22.08333333 18.6875 -21.5 21.1875 C-18.6496215 23.80958731 -16.11245947 24.72347849 -12.375 25.5625 C-4.49807245 27.58709182 2.94296749 30.09314426 7.5 37.1875 C8.53048658 42.41353908 8.58145145 47.79867746 6.359375 52.70703125 C3.43162357 56.85981552 0.36018162 59.45943542 -4.5 61.1875 C-5.49 61.1875 -6.48 61.1875 -7.5 61.1875 C-7.5 61.8475 -7.5 62.5075 -7.5 63.1875 C-18.03680148 64.26163996 -18.03680148 64.26163996 -21.52734375 61.69921875 C-23.0625 59.8125 -23.0625 59.8125 -24.31640625 57.9140625 C-25.54948614 55.88538063 -25.54948614 55.88538063 -28.5 54.1875 C-28.5 53.5275 -28.5 52.8675 -28.5 52.1875 C-27.94538086 52.16244385 -27.39076172 52.1373877 -26.81933594 52.11157227 C-24.29601157 51.99522073 -21.77302464 51.87267246 -19.25 51.75 C-18.37730469 51.71068359 -17.50460938 51.67136719 -16.60546875 51.63085938 C-15.76113281 51.58896484 -14.91679687 51.54707031 -14.046875 51.50390625 C-13.27182617 51.46724854 -12.49677734 51.43059082 -11.69824219 51.39282227 C-9.5425024 51.19146985 -7.58198525 50.77020703 -5.5 50.1875 C-5.16619186 46.81313814 -5.16619186 46.81313814 -5.5 43.1875 C-9.31689845 39.11546128 -15.55832763 38.20025304 -20.76953125 36.7890625 C-26.67960057 34.99932437 -30.15888132 32.43205294 -33.5 27.1875 C-34.7640872 23.39523841 -35.49253752 20.08572707 -34.5 16.1875 C-32.1872076 13.38162495 -29.39510677 11.36265958 -26.5 9.1875 C-24.83187854 7.65268415 -23.17726668 6.1053376 -21.53125 4.546875 C-14.62130576 -0.0774723 -8.04600319 -0.20590166 0 0 Z " fill="#EACE88" transform="translate(183.5,89.8125)"/>
<path d="M0 0 C17.48971917 16.61366884 25.56163246 39.21903992 26.33398438 63.01831055 C26.77033627 90.08511463 17.2866577 114.33898672 0 135 C-0.58910156 135.70511719 -1.17820312 136.41023437 -1.78515625 137.13671875 C-15.77262149 152.33494408 -38.38543558 165.73440703 -59.31640625 167.23828125 C-61.89372432 167.24815603 -64.43039216 167.18878751 -67 167 C-67 166.67 -67 166.34 -67 166 C-65.44152344 165.72736328 -65.44152344 165.72736328 -63.8515625 165.44921875 C-53.04229945 163.51917863 -42.60697512 161.5895128 -33 156 C-32.67 155.01 -32.34 154.02 -32 153 C-30.3364521 152.32558869 -28.66933058 151.6599679 -27 151 C-26.38125 150.38125 -25.7625 149.7625 -25.125 149.125 C-23.18807897 147.18807897 -21.67944007 146.1669347 -19.3125 144.875 C-15.95938281 143.38383627 -15.95938281 143.38383627 -15 141 C-14.01 141 -13.02 141 -12 141 C-12 140.34 -12 139.68 -12 139 C-10.125 136.875 -10.125 136.875 -8 135 C-7.34 135 -6.68 135 -6 135 C-6 134.34 -6 133.68 -6 133 C-4.625 131.375 -4.625 131.375 -3 130 C-2.34 130 -1.68 130 -1 130 C-0.9175 129.4225 -0.835 128.845 -0.75 128.25 C0.21797787 125.3460664 1.68694284 123.96259396 4 122 C4.66 122 5.32 122 6 122 C6.10699219 121.28199219 6.21398437 120.56398438 6.32421875 119.82421875 C7.06214217 116.74029603 8.21746125 114.54627527 9.8125 111.8125 C13.55618342 105.14406391 16.62148015 98.54903729 18 91 C18.24878906 89.80890625 18.49757813 88.6178125 18.75390625 87.390625 C21.45840404 73.8582716 21.55779598 61.07937098 20.1875 47.375 C20.08272339 46.27393921 20.08272339 46.27393921 19.97583008 45.15063477 C19.41636475 40.30026521 18.09791148 36.45561105 16 32 C15.36123822 30.50849209 14.7273973 29.01487023 14.09765625 27.51953125 C13.41986852 25.95026255 12.74147493 24.3812554 12.0625 22.8125 C11.72798828 22.01908203 11.39347656 21.22566406 11.04882812 20.40820312 C9.19919524 16.16366985 7.55885201 13.0872857 4 10 C0 4.66666667 0 4.66666667 0 0 Z " fill="#593200" transform="translate(204,58)"/>
<path d="M0 0 C3.83250118 3.34255908 7.49586002 6.83759593 11.09716797 10.42675781 C10.76716797 11.08675781 10.43716797 11.74675781 10.09716797 12.42675781 C9.26314453 11.70230469 8.42912109 10.97785156 7.56982422 10.23144531 C-16.85752394 -10.82699021 -42.62738003 -19.0232209 -74.90283203 -17.57324219 C-100.19106294 -15.47349738 -123.25477694 -1.12393214 -139.90283203 17.42675781 C-142.48571229 20.62705965 -144.72875857 23.9381283 -146.90283203 27.42675781 C-147.56025391 28.43996094 -148.21767578 29.45316406 -148.89501953 30.49707031 C-162.38373664 52.43532343 -166.13687158 81.44105027 -160.51928711 106.57617188 C-156.73935297 120.60608981 -149.92159021 133.09329934 -140.90283203 144.42675781 C-140.20416016 145.35101563 -139.50548828 146.27527344 -138.78564453 147.22753906 C-123.9468277 166.31733367 -100.44267633 178.58630495 -76.65283203 182.11425781 C-75.29158203 182.26894531 -75.29158203 182.26894531 -73.90283203 182.42675781 C-73.90283203 182.75675781 -73.90283203 183.08675781 -73.90283203 183.42675781 C-92.33161367 185.42025583 -113.21309723 173.74100203 -127.30859375 162.73974609 C-146.65378286 146.8073683 -160.62612553 123.92097435 -164.42626953 98.99316406 C-164.71607815 95.79352031 -164.85252188 92.63886777 -164.90283203 89.42675781 C-164.92990234 88.21246094 -164.95697266 86.99816406 -164.98486328 85.74707031 C-165.02735206 81.96943125 -164.98319111 78.20363465 -164.90283203 74.42675781 C-164.89767578 73.38003906 -164.89251953 72.33332031 -164.88720703 71.25488281 C-164.02813394 47.07811143 -150.49606275 23.12115857 -133.21533203 6.73925781 C-96.35447136 -24.53133015 -39.35134427 -32.53529156 0 0 Z " fill="#0C0100" transform="translate(189.90283203125,41.5732421875)"/>
<path d="M0 0 C0 0.66 0 1.32 0 2 C-1.27539062 3.25195313 -1.27539062 3.25195313 -3.15625 4.78125 C-7.09605424 8.13147086 -10.76524749 11.67711768 -14.40625 15.34375 C-14.97931885 15.92012207 -15.5523877 16.49649414 -16.14282227 17.09033203 C-17.93052073 18.89161296 -19.71568927 20.69536352 -21.5 22.5 C-35.47699798 36.6362152 -35.47699798 36.6362152 -41.48046875 41.70532227 C-43.4292422 43.36572484 -45.22771788 45.15387279 -47 47 C-50.33717549 45.6190998 -52.22301036 44.1798762 -54 41 C-53.71520202 38.57680365 -53.33008961 37.33941417 -51.6171875 35.578125 C-51.04226562 35.13984375 -50.46734375 34.7015625 -49.875 34.25 C-47.29950078 32.17848385 -45.07826015 30.06578382 -42.94140625 27.546875 C-38.55099819 22.47366993 -34.13248604 17.44596754 -29.52416992 12.56982422 C-28.54995184 11.52352018 -27.59139676 10.46241009 -26.64916992 9.38720703 C-18.54872965 0.17648288 -11.99905559 -1.50857243 0 0 Z " fill="#EDD595" transform="translate(160,90)"/>
<path d="M0 0 C2.29764 0.92319589 3.50877454 1.93378479 5.23950195 3.69555664 C6.11445313 4.57715454 6.11445313 4.57715454 7.00708008 5.4765625 C7.91683594 6.41834351 7.91683594 6.41834351 8.8449707 7.37915039 C9.47081055 8.01667236 10.09665039 8.65419434 10.74145508 9.31103516 C15.0019334 13.67758118 19.12111429 18.13345297 23.0324707 22.81665039 C24.17722188 24.15091294 25.32301887 25.48427909 26.4699707 26.81665039 C27.3155957 27.80665039 28.1612207 28.79665039 29.0324707 29.81665039 C14.46377655 31.33774375 14.46377655 31.33774375 8.9230957 27.87133789 C6.40134799 25.3104326 4.20297095 22.67943027 2.0324707 19.81665039 C0.72903391 18.32949108 -0.5825912 16.84943871 -1.9050293 15.37915039 C-2.42967773 14.76168945 -2.95432617 14.14422852 -3.49487305 13.50805664 C-4.95165363 11.78084091 -4.95165363 11.78084091 -6.65893555 10.21118164 C-7.9675293 8.81665039 -7.9675293 8.81665039 -7.9675293 6.94165039 C-6.4101351 3.63218772 -4.01737069 -0.3743697 0 0 Z " fill="#DBAE5F" transform="translate(131.967529296875,123.183349609375)"/>
<path d="M0 0 C2.66256029 2.66256029 3.05147436 5.07010408 4.0625 8.6875 C4.40410156 9.88761719 4.74570313 11.08773437 5.09765625 12.32421875 C8.89870233 27.80813374 8.18734502 43.98900158 3 59 C2.76152344 59.75023437 2.52304688 60.50046875 2.27734375 61.2734375 C1.60826954 63.23658938 0.84238366 65.10463677 0 67 C-0.39703125 67.89847656 -0.7940625 68.79695313 -1.203125 69.72265625 C-7.0790009 82.2331063 -15.61152875 92.92286037 -26 102 C-27.485 102.495 -27.485 102.495 -29 103 C-29 102.34 -29 101.68 -29 101 C-29.66 100.67 -30.32 100.34 -31 100 C-30.3709375 99.45472656 -29.741875 98.90945312 -29.09375 98.34765625 C-12.09583833 83.37208648 0.47825073 64.68210655 2.27319336 41.46655273 C2.36410051 37.88963959 2.36110917 34.32763477 2.3125 30.75 C2.31572266 29.54859375 2.31894531 28.3471875 2.32226562 27.109375 C2.26817316 18.13986064 1.02738427 10.43342761 -2 2 C-1.34 1.34 -0.68 0.68 0 0 Z " fill="#916E24" transform="translate(208,91)"/>
<path d="M0 0 C8.27902478 7.48300914 20.45186797 20.92064049 21.19873047 32.63208008 C21.13814453 33.33204102 21.07755859 34.03200195 21.01513672 34.75317383 C17.76324233 32.03993679 16.2362391 28.46664066 14.39013672 24.75317383 C3.11976027 2.97286978 -15.75640906 -9.94784979 -38.60986328 -17.43432617 C-57.3741317 -21.95165005 -77.63191028 -19.96282047 -95.15209961 -12.14086914 C-99.68806937 -10.14789487 -99.68806937 -10.14789487 -102.98486328 -11.24682617 C-71.98461687 -34.089113 -27.02269587 -23.44389548 0 0 Z " fill="#D4C680" transform="translate(186.98486328125,59.246826171875)"/>
<path d="M0 0 C4.21330689 3.46549051 5.47672354 7.23540232 7.125 12.25 C7.37636719 12.97574219 7.62773437 13.70148438 7.88671875 14.44921875 C16.8958352 40.91055032 14.36750308 69.06874349 2.4765625 94.22265625 C-1.77460968 102.59527001 -6.99969545 109.828436 -13 117 C-13.58910156 117.70511719 -14.17820312 118.41023438 -14.78515625 119.13671875 C-28.77262149 134.33494408 -51.38543558 147.73440703 -72.31640625 149.23828125 C-74.89372432 149.24815603 -77.43039216 149.18878751 -80 149 C-80 148.67 -80 148.34 -80 148 C-78.44152344 147.72736328 -78.44152344 147.72736328 -76.8515625 147.44921875 C-75.44265382 147.19561519 -74.03380273 146.94169152 -72.625 146.6875 C-71.60599609 146.51057617 -71.60599609 146.51057617 -70.56640625 146.33007812 C-61.31261409 144.64363937 -52.98427551 141.88052988 -44.6875 137.4375 C-43.86717285 137.00058838 -43.0468457 136.56367676 -42.20166016 136.11352539 C-27.3078797 127.97281646 -15.36711064 117.16379532 -6 103 C-5.48695313 102.31679687 -4.97390625 101.63359375 -4.4453125 100.9296875 C9.6274504 81.7528137 12.50080563 54.16778548 9.46875 31.2578125 C8.20800356 23.50548627 5.8849915 16.28116902 3 9 C2.40478557 7.27488698 1.82062319 5.54590252 1.25 3.8125 C0.88648438 2.70841797 0.88648438 2.70841797 0.515625 1.58203125 C0.34546875 1.05996094 0.1753125 0.53789063 0 0 Z " fill="#0E0100" transform="translate(217,76)"/>
<path d="M0 0 C2.97 0.495 2.97 0.495 6 1 C6 1.66 6 2.32 6 3 C6.66 3 7.32 3 8 3 C8 3.66 8 4.32 8 5 C8.6909375 5.10570312 9.381875 5.21140625 10.09375 5.3203125 C13.47936664 6.11210994 16.34278358 7.41949426 19.5 8.875 C25.278203 11.46292104 30.92686966 13.13315469 37.16015625 14.359375 C40 15 40 15 42.28613281 16.02124023 C47.52323899 17.91000946 53.1791461 17.32671878 58.6875 17.3125 C59.91662109 17.32861328 61.14574219 17.34472656 62.41210938 17.36132812 C68.98793224 17.36483523 74.60358918 16.88448464 80.82641602 14.73266602 C83.87717276 13.70432489 86.94255401 13.25262551 90.125 12.8125 C91.24132812 12.65394531 92.35765625 12.49539062 93.5078125 12.33203125 C94.33023438 12.22246094 95.15265625 12.11289063 96 12 C95 14 95 14 91.24609375 15.25390625 C89.64551984 15.69843595 88.04250491 16.13424453 86.4375 16.5625 C85.65052734 16.78357422 84.86355469 17.00464844 84.05273438 17.23242188 C59.24955552 24.00064298 33.42405662 19.76971087 10.875 7.9375 C10.24722656 7.60919189 9.61945313 7.28088379 8.97265625 6.94262695 C5.44925462 5.02116405 2.67809049 2.99120057 0 0 Z " fill="#502900" transform="translate(68,205)"/>
<path d="M0 0 C17.49252859 4.27701935 32.96019575 19.92132122 42.05175781 34.7109375 C48.47848516 45.47196934 48.47848516 45.47196934 48 51 C44.74810561 48.28676296 43.22110238 44.71346684 41.375 41 C31.87840476 22.6475756 16.38539525 9.16172242 -3 2 C-2.01 1.34 -1.02 0.68 0 0 Z " fill="#AE8C3C" transform="translate(160,43)"/>
<path d="M0 0 C0 0.99 0 1.98 0 3 C-2.1847753 4.27571484 -4.37261619 5.54560673 -6.5625 6.8125 C-7.17158203 7.16892578 -7.78066406 7.52535156 -8.40820312 7.89257812 C-22.31007902 15.91006211 -35.18526108 18.68183306 -51 18 C-50.67 17.34 -50.34 16.68 -50 16 C-47.32311147 15.40248024 -44.70538127 14.91942355 -42 14.5 C-40.42826957 14.23375589 -38.85665338 13.96683648 -37.28515625 13.69921875 C-35.0029006 13.32088214 -32.72527618 12.96194845 -30.43359375 12.64453125 C-21.54254654 11.16558993 -12.77211677 5.99257043 -5.203125 1.24609375 C-3 0 -3 0 0 0 Z " fill="#D6C780" transform="translate(179,192)"/>
<path d="M0 0 C0.33 0 0.66 0 1 0 C1.55976089 5.59760892 -0.23314806 9.30382968 -3 14 C-3.62132812 15.05703125 -4.24265625 16.1140625 -4.8828125 17.203125 C-14.55273234 33.14355763 -29.7367812 50.9122604 -48 57 C-48 56.01 -48 55.02 -48 54 C-47.2575 53.7525 -46.515 53.505 -45.75 53.25 C-42.95367121 52.17312336 -42.95367121 52.17312336 -41.125 50.125 C-39.18807897 48.18807897 -37.67944007 47.1669347 -35.3125 45.875 C-31.95938281 44.38383627 -31.95938281 44.38383627 -31 42 C-30.01 42 -29.02 42 -28 42 C-28 41.34 -28 40.68 -28 40 C-26.125 37.875 -26.125 37.875 -24 36 C-23.34 36 -22.68 36 -22 36 C-22 35.34 -22 34.68 -22 34 C-20.625 32.375 -20.625 32.375 -19 31 C-18.34 31 -17.68 31 -17 31 C-16.9175 30.4225 -16.835 29.845 -16.75 29.25 C-15.78202213 26.3460664 -14.31305716 24.96259396 -12 23 C-11.34 23 -10.68 23 -10 23 C-9.89429688 22.28585938 -9.78859375 21.57171875 -9.6796875 20.8359375 C-8.92800593 17.69961096 -7.7320466 15.4153446 -6.125 12.625 C-3.79536486 8.48653758 -1.76256725 4.40641812 0 0 Z " fill="#5B3400" transform="translate(220,157)"/>
<path d="M0 0 C0.33 0 0.66 0 1 0 C0.99887207 0.57218262 0.99774414 1.14436523 0.99658203 1.73388672 C1.09727508 23.66308138 6.75845001 39.35464972 18 58 C16.68 58 15.36 58 14 58 C12.4375 56.05859375 12.4375 56.05859375 11 53.4375 C10.23042969 52.05304688 10.23042969 52.05304688 9.4453125 50.640625 C8.96835937 49.76921875 8.49140625 48.8978125 8 48 C7.29875 46.906875 6.5975 45.81375 5.875 44.6875 C1.11580417 36.29941735 -2.6299076 23.76356785 -2 14 C-1.67 14 -1.34 14 -1 14 C-0.67 9.38 -0.34 4.76 0 0 Z " fill="#8B6A24" transform="translate(42,117)"/>
<path d="M0 0 C-1.74404788 1.01034498 -3.49549561 2.00792422 -5.25 3 C-6.22453125 3.556875 -7.1990625 4.11375 -8.203125 4.6875 C-11 6 -11 6 -15 6 C-15.33 6.99 -15.66 7.98 -16 9 C-18.3984375 10.9375 -18.3984375 10.9375 -21.375 13 C-25.23812436 15.65126368 -25.23812436 15.65126368 -28.7265625 18.75 C-30 20 -30 20 -32 20 C-32.21785156 20.54527344 -32.43570313 21.09054688 -32.66015625 21.65234375 C-34.44343343 24.77697811 -36.87292749 27.08486215 -39.4375 29.5625 C-39.92798828 30.04396484 -40.41847656 30.52542969 -40.92382812 31.02148438 C-42.27911665 32.35116691 -43.63938123 33.67577222 -45 35 C-46.00211639 35.99787912 -47.00338407 36.99662735 -48 38 C-48 31.01289394 -39.5157167 24.32494694 -34.9375 19.5 C-27.92714347 12.62595596 -10.23608959 -3.62768863 0 0 Z " fill="#573000" transform="translate(92,31)"/>
<path d="M0 0 C2.66256029 2.66256029 3.05147436 5.07010408 4.0625 8.6875 C4.40410156 9.88761719 4.74570313 11.08773437 5.09765625 12.32421875 C6.88403736 19.60120845 7.12867209 26.4905951 7.0625 33.9375 C7.05798828 34.90751953 7.05347656 35.87753906 7.04882812 36.87695312 C7.0371315 39.2513676 7.02074086 41.62565021 7 44 C6.67 44 6.34 44 6 44 C5.67 40.7 5.34 37.4 5 34 C4.67 36.64 4.34 39.28 4 42 C3.67 42 3.34 42 3 42 C2.98018066 41.28980713 2.96036133 40.57961426 2.93994141 39.84790039 C2.84384804 36.5857696 2.7345145 33.32420672 2.625 30.0625 C2.5940625 28.94552734 2.563125 27.82855469 2.53125 26.67773438 C2.22392849 17.94468142 0.95436638 10.23002063 -2 2 C-1.34 1.34 -0.68 0.68 0 0 Z " fill="#765B22" transform="translate(208,91)"/>
<path d="M0 0 C0.33 0 0.66 0 1 0 C1.28958538 4.19136728 0.38891757 6.84226347 -1.375 10.625 C-3.53544984 15.57882019 -4.79021679 20.14142342 -5.6015625 25.46875 C-5.96592329 27.78351264 -6.46194621 29.98704367 -7.0625 32.25 C-8.85963407 39.4385363 -9.25518842 46.56706005 -9.5625 53.9375 C-9.60568359 54.90751953 -9.64886719 55.87753906 -9.69335938 56.87695312 C-9.79862093 59.25118601 -9.90075707 61.62550921 -10 64 C-10.33 64 -10.66 64 -11 64 C-11.05006378 59.7865549 -11.08602769 55.57327511 -11.10986328 51.35961914 C-11.1198174 49.93120298 -11.13338562 48.50280662 -11.15087891 47.07446289 C-11.29330528 35.13159254 -10.20756195 24.40123907 -6.0625 13.125 C-5.81048828 12.40570313 -5.55847656 11.68640625 -5.29882812 10.9453125 C-3.89046165 7.0263797 -2.37820799 3.45551588 0 0 Z " fill="#552F00" transform="translate(38,76)"/>
<path d="M0 0 C0 0.33 0 0.66 0 1 C-6.75 1.125 -6.75 1.125 -9 0 C-23.64940513 -0.96908964 -38.74135659 -0.74920733 -53 3 C-53.33 3.33 -53.66 3.66 -54 4 C-56.33297433 4.04092937 -58.66705225 4.04241723 -61 4 C-44.71042871 -6.8597142 -18.0198258 -5.32980763 0 0 Z " fill="#502800" transform="translate(153,26)"/>
<path d="M0 0 C5.37527067 0.55992403 10.0362017 1.83135026 15 4 C16.04414063 4.45117188 17.08828125 4.90234375 18.1640625 5.3671875 C26.80340287 9.37078426 33.4703326 14.36491542 40.5234375 20.71044922 C43.3753325 23.20114191 46.43828041 25.42056856 49.48828125 27.66015625 C49.98714844 28.10230469 50.48601562 28.54445313 51 29 C51 29.66 51 30.32 51 31 C47.66864109 30.40300869 45.78724333 29.27987719 43.25 27.0625 C42.63640625 26.53785156 42.0228125 26.01320313 41.390625 25.47265625 C40 24 40 24 40 22 C39.01 21.67 38.02 21.34 37 21 C37 20.34 37 19.68 37 19 C36.28457031 18.73960938 35.56914062 18.47921875 34.83203125 18.2109375 C31.86376006 16.94174568 29.37630843 15.40716246 26.6875 13.625 C19.88888949 9.23556154 13.80812657 6.16892405 6 4 C3.97843296 3.04435012 1.97033426 2.05725253 0 1 C0 0.67 0 0.34 0 0 Z " fill="#562F00" transform="translate(153,27)"/>
<path d="M0 0 C7.19268291 6.51836889 13.02477717 14.10245837 15.359375 23.60546875 C16.01355073 26.05064997 16.91344597 28.15492567 18 30.4375 C24.13884146 43.75807491 24.13884146 43.75807491 22 50 C20.86053385 47.31411551 19.91250702 44.68752509 19.125 41.875 C14.23446622 24.40773144 14.23446622 24.40773144 4 10 C0 4.66666667 0 4.66666667 0 0 Z " fill="#512A00" transform="translate(204,58)"/>
<path d="M0 0 C0.33 0 0.66 0 1 0 C1.45212729 11.31992777 0.82093389 22.02125618 -5 32 C-5.66 32 -6.32 32 -7 32 C-6.2751086 26.19331786 -4.9723208 20.69461139 -3.4609375 15.04882812 C-2.55193352 11.55187624 -1.84751955 8.15187057 -1.4375 4.55859375 C-1 1 -1 1 0 0 Z " fill="#BDA55B" transform="translate(213,124)"/>
<path d="M0 0 C0.33 0 0.66 0 1 0 C2.06499948 10.14285215 2.06499948 10.14285215 -0.41796875 14.47265625 C-3.31275164 17.7748073 -6.45444656 20.41927637 -10 23 C-9.49477778 27.37859255 -6.82172778 29.81651224 -4 33 C-5.485 33.495 -5.485 33.495 -7 34 C-8.50596108 32.54782324 -10.00462104 31.08807139 -11.5 29.625 C-12.3353125 28.81289062 -13.170625 28.00078125 -14.03125 27.1640625 C-16 25 -16 25 -16 23 C-14.34579846 21.97951236 -12.67619104 20.98395192 -11 20 C-4.18028694 14.5797136 -4.18028694 14.5797136 -0.1328125 7.12109375 C0.09451062 4.69975806 0.17531716 2.42350186 0 0 Z " fill="#282D36" transform="translate(117,105)"/>
<path d="M0 0 C2.48979394 3.73469091 3.86881021 6.06527275 4.5 10.5625 C4.76535587 14.11295563 4.76535587 14.11295563 7 17 C7.2475 18.010625 7.495 19.02125 7.75 20.0625 C8.8945775 24.38442465 11.19075353 27.86988064 13.546875 31.6328125 C15 34 15 34 16.6875 37.4375 C17.8353058 40.00159897 17.8353058 40.00159897 19.625 41.625 C21.3168346 43.3168346 21.59941561 44.67661054 22 47 C10.47804587 36.49468888 2.37364475 19.30506353 0 4 C0 2.68 0 1.36 0 0 Z " fill="#562F00" transform="translate(28,140)"/>
<path d="M0 0 C0.66 0.33 1.32 0.66 2 1 C-7.24 10.24 -16.48 19.48 -26 29 C-25.67 29.66 -25.34 30.32 -25 31 C-26.1446875 31.6496875 -26.1446875 31.6496875 -27.3125 32.3125 C-30.85834214 34.53895902 -32.67864005 36.51796008 -35 40 C-35 39.01 -35 38.02 -35 37 C-35.66 36.67 -36.32 36.34 -37 36 C-35.93120605 35.03839966 -35.93120605 35.03839966 -34.84082031 34.05737305 C-26.90378118 26.87326965 -19.28936923 19.41051123 -11.75 11.8125 C-10.60049954 10.65796499 -9.45076096 9.50366702 -8.30078125 8.34960938 C-5.53111674 5.56911591 -2.76464098 2.78548804 0 0 Z " fill="#202A39" transform="translate(158,92)"/>
<path d="M0 0 C0.33 0 0.66 0 1 0 C0.85738409 1.87524747 0.71075143 3.75018964 0.5625 5.625 C0.48128906 6.66914062 0.40007813 7.71328125 0.31640625 8.7890625 C0 12 0 12 -0.5 14.8125 C-1.155693 18.9925429 -1.35708564 23.15221946 -1.5625 27.375 C-1.60568359 28.20644531 -1.64886719 29.03789062 -1.69335938 29.89453125 C-1.79861805 31.92953228 -1.89973072 33.96474703 -2 36 C-4.46456964 31.62399379 -4.3437529 27.92257232 -4.3125 23 C-4.31048584 22.1558252 -4.30847168 21.31165039 -4.30639648 20.44189453 C-4.04516254 4.04516254 -4.04516254 4.04516254 0 0 Z " fill="#C5B26A" transform="translate(44,99)"/>
<path d="M0 0 C0 0.33 0 0.66 0 1 C-0.90878906 1.14695313 -1.81757812 1.29390625 -2.75390625 1.4453125 C-10.6849952 2.86070684 -17.79566949 4.80867704 -25.16235352 8.10595703 C-29.70747648 10.09750784 -29.70747648 10.09750784 -33 9 C-27.99967638 5.31555102 -22.82282506 3.11485006 -17 1 C-15.2675 0.3503125 -15.2675 0.3503125 -13.5 -0.3125 C-8.83963936 -1.22792798 -4.66549259 -0.69466087 0 0 Z " fill="#C8BA78" transform="translate(117,39)"/>
<path d="M0 0 C5.62219846 4.66522851 11.16010796 9.51259405 16 15 C16 15.66 16 16.32 16 17 C11.39673947 16.14614443 8.97184935 13.37962527 5.8125 10.125 C5.26658203 9.58230469 4.72066406 9.03960937 4.15820312 8.48046875 C1.7356297 6.02487388 0.10444664 4.31333991 -1 1 C-0.67 0.67 -0.34 0.34 0 0 Z " fill="#CAB76E" transform="translate(59,175)"/>
<path d="M0 0 C4.09288256 1.36429419 5.12056088 4.04931557 7.125 7.625 C7.48464844 8.22957031 7.84429687 8.83414063 8.21484375 9.45703125 C10.61835739 13.67893348 11.58929718 17.15868493 12 22 C8.76950266 18.97893987 6.90678581 15.44373188 4.875 11.5625 C4.33552734 10.55993164 4.33552734 10.55993164 3.78515625 9.53710938 C2.11681043 6.38474808 0.76570106 3.47911236 0 0 Z " fill="#C3AA5E" transform="translate(196,72)"/>
<path d="M0 0 C-0.99 0.33 -1.98 0.66 -3 1 C-2.01 1.66 -1.02 2.32 0 3 C-4.62459244 4.17700048 -9.07866462 4.11408412 -13.8125 4.0625 C-14.99489258 4.05573242 -14.99489258 4.05573242 -16.20117188 4.04882812 C-18.13414761 4.03711312 -20.06708393 4.01917998 -22 4 C-21.67 3.34 -21.34 2.68 -21 2 C-18.21627139 1.32847354 -15.50565966 0.78257922 -12.6875 0.3125 C-11.91470703 0.17005859 -11.14191406 0.02761719 -10.34570312 -0.11914062 C-6.51828671 -0.78062876 -3.77403712 -1.14715102 0 0 Z " fill="#CAB56C" transform="translate(150,206)"/>
<path d="M0 0 C0.33 0 0.66 0 1 0 C1.03758423 0.97610229 1.03758423 0.97610229 1.07592773 1.97192383 C1.19193702 4.91898046 1.31464115 7.8657213 1.4375 10.8125 C1.47681641 11.83666016 1.51613281 12.86082031 1.55664062 13.91601562 C1.59853516 14.89892578 1.64042969 15.88183594 1.68359375 16.89453125 C1.72025146 17.80050049 1.75690918 18.70646973 1.79467773 19.63989258 C1.9208205 22.15048782 1.9208205 22.15048782 3 25 C3.03954234 27.33299825 3.04401732 29.66708189 3 32 C2.34 32 1.68 32 1 32 C0.49309416 29.93918639 -0.00524619 27.87626474 -0.5 25.8125 C-0.7784375 24.66394531 -1.056875 23.51539063 -1.34375 22.33203125 C-1.91495385 19.43181171 -2.13283779 16.93903615 -2 14 C-1.67 14 -1.34 14 -1 14 C-0.67 9.38 -0.34 4.76 0 0 Z " fill="#8D7335" transform="translate(42,117)"/>
<path d="M0 0 C0.66 0 1.32 0 2 0 C0.33982974 5.18127556 -1.71576312 10.1102313 -3.87890625 15.09765625 C-4.90330807 17.74967909 -5.54300076 20.20152153 -6 23 C-6.99 22.34 -7.98 21.68 -9 21 C-7.09718835 13.30529677 -4.00712657 6.82119281 0 0 Z " fill="#A48438" transform="translate(52,79)"/>
<path d="M0 0 C5.17226615 4.6873662 8.98925493 10.31728181 13 16 C12.67 16.66 12.34 17.32 12 18 C6.8154972 14.17334317 2.92348895 9.79514299 0 4 C0 2.68 0 1.36 0 0 Z " fill="#451F00" transform="translate(204,58)"/>
<path d="M0 0 C0 0.33 0 0.66 0 1 C-4.78972557 1.36844043 -8.25481926 0.32562108 -12.67578125 -1.265625 C-16.10210925 -2.34822948 -19.42782494 -2.67525681 -23 -3 C-23 -3.33 -23 -3.66 -23 -4 C-14.72448786 -6.40256804 -7.38666765 -3.75445282 0 0 Z " fill="#BAAC72" transform="translate(160,43)"/>
<path d="M0 0 C3.56491327 1.32033825 5.3851613 3.48255047 7.7109375 6.421875 C9.14194549 8.22762606 9.14194549 8.22762606 11.5625 10.5625 C13.91678161 12.91678161 15.96815678 15.36612915 18 18 C10.74029907 14.77346625 4.66730039 8.32343924 0 2 C0 1.34 0 0.68 0 0 Z " fill="#512800" transform="translate(50,187)"/>
<path d="M0 0 C1.84121215 1.09097798 3.67281256 2.19819251 5.5 3.3125 C6.5209375 3.92738281 7.541875 4.54226562 8.59375 5.17578125 C9.3878125 5.77777344 10.181875 6.37976563 11 7 C11 7.99 11 8.98 11 10 C7.50155614 9.36610765 5.15913124 7.94822306 2.25 5.9375 C1.45078125 5.38964844 0.6515625 4.84179688 -0.171875 4.27734375 C-0.77515625 3.85582031 -1.3784375 3.43429688 -2 3 C-1.34 2.67 -0.68 2.34 0 2 C0 1.34 0 0.68 0 0 Z " fill="#B29446" transform="translate(75,190)"/>
<path d="M0 0 C-15.58928571 5.30247813 -15.58928571 5.30247813 -23 5 C-16.67566228 1.59458738 -7.06990942 -2.35663647 0 0 Z " fill="#573000" transform="translate(164,218)"/>
<path d="M0 0 C1.32 0 2.64 0 4 0 C3.34206835 1.67013418 2.67276716 3.3357865 2 5 C1.319375 6.85625 1.319375 6.85625 0.625 8.75 C-1 12 -1 12 -3.1875 12.9375 C-3.785625 12.958125 -4.38375 12.97875 -5 13 C-4.39254603 8.14036821 -2.27241033 4.2594482 0 0 Z " fill="#9D7C31" transform="translate(205,155)"/>
<path d="M0 0 C0.66 0.33 1.32 0.66 2 1 C2 7.93 2 14.86 2 22 C1.67 22 1.34 22 1 22 C0.67 18.7 0.34 15.4 0 12 C-0.33 12 -0.66 12 -1 12 C-1.02698189 10.37509046 -1.04638757 8.75005367 -1.0625 7.125 C-1.07410156 6.22007813 -1.08570313 5.31515625 -1.09765625 4.3828125 C-1 2 -1 2 0 0 Z " fill="#987323" transform="translate(213,113)"/>
<path d="M0 0 C0.33 1.32 0.66 2.64 1 4 C1.66 4 2.32 4 3 4 C2.39301257 8.12751449 0.96189209 11.3321148 -1 15 C-1.66 15 -2.32 15 -3 15 C-2.35812082 9.86496656 -1.31727753 5.0056546 0 0 Z " fill="#B8A663" transform="translate(209,141)"/>
<path d="M0 0 C4.30289834 1.05181959 8.08855769 2.95114927 12 5 C12 5.99 12 6.98 12 8 C6.80355921 6.40109514 1.93387858 4.25861997 -3 2 C-2.01 1.34 -1.02 0.68 0 0 Z " fill="#AE9856" transform="translate(160,43)"/>
<path d="M0 0 C0.33 0 0.66 0 1 0 C2.0735426 10.22421525 2.0735426 10.22421525 -0.55859375 14.578125 C-2.28909434 16.51405725 -4.03925504 18.29935386 -6 20 C-6.66 19.01 -7.32 18.02 -8 17 C-7.25943359 16.41605469 -7.25943359 16.41605469 -6.50390625 15.8203125 C-2.49768349 12.32192079 -0.55480635 9.97017758 -0.0625 4.5625 C-0.0103958 3.04241671 0.02142007 1.52082518 0 0 Z " fill="#2D353E" transform="translate(117,105)"/>
<path d="M0 0 C-3.47140954 2.0485602 -6.71813945 2.53354826 -10.6875 3.0625 C-14.66552043 3.27849766 -14.66552043 3.27849766 -18 5 C-20.33297433 5.04092937 -22.66705225 5.04241723 -25 5 C-20.51652994 2.01101996 -17.54959779 0.74768229 -12.125 0.375 C-11.11695312 0.30023437 -10.10890625 0.22546875 -9.0703125 0.1484375 C-6.04130679 0.00199702 -3.03201111 -0.02715234 0 0 Z " fill="#5A3300" transform="translate(117,25)"/>
<path d="M0 0 C1.44349674 0.73839246 2.87959051 1.49126643 4.3125 2.25 C5.11300781 2.66765625 5.91351563 3.0853125 6.73828125 3.515625 C9.13190204 5.08656783 10.43301591 6.6267037 12 9 C11.01 9.33 10.02 9.66 9 10 C7.02734375 8.85546875 7.02734375 8.85546875 4.9375 7.1875 C4.24527344 6.64480469 3.55304688 6.10210937 2.83984375 5.54296875 C1 4 1 4 -1 2 C-0.67 1.34 -0.34 0.68 0 0 Z " fill="#A88940" transform="translate(172,49)"/>
<path d="M0 0 C2.97 1.32 5.94 2.64 9 4 C9 4.99 9 5.98 9 7 C4.87248551 6.39301257 1.6678852 4.96189209 -2 3 C-1.34 2.01 -0.68 1.02 0 0 Z " fill="#9C7829" transform="translate(87,198)"/>
<path d="M0 0 C0.99 0.66 1.98 1.32 3 2 C1.23174858 3.14981374 -0.53969521 4.29471922 -2.3125 5.4375 C-3.29863281 6.07558594 -4.28476563 6.71367188 -5.30078125 7.37109375 C-8 9 -8 9 -11 10 C-9.54144353 6.31353859 -7.69770955 4.83856029 -4.375 2.75 C-3.55773437 2.22921875 -2.74046875 1.7084375 -1.8984375 1.171875 C-1.27195312 0.78515625 -0.64546875 0.3984375 0 0 Z " fill="#A8883C" transform="translate(83,48)"/>
<path d="M0 0 C0 0.99 0 1.98 0 3 C-4.17737474 4.59138085 -7.53160785 5.21278058 -12 5 C-11.67 4.34 -11.34 3.68 -11 3 C-10.01 3 -9.02 3 -8 3 C-8 2.34 -8 1.68 -8 1 C-5.23735711 0.40267181 -2.83967231 0 0 0 Z " fill="#E3D890" transform="translate(158,203)"/>
<path d="M0 0 C2.86299506 2.86299506 2.99421225 4.65852284 3.0625 8.6875 C3.041875 9.780625 3.02125 10.87375 3 12 C1 11 1 11 0.1484375 8.93359375 C-0.10679687 8.10988281 -0.36203125 7.28617187 -0.625 6.4375 C-0.88539063 5.61121094 -1.14578125 4.78492187 -1.4140625 3.93359375 C-1.60742188 3.29550781 -1.80078125 2.65742187 -2 2 C-1.34 1.34 -0.68 0.68 0 0 Z " fill="#9A792F" transform="translate(208,91)"/>
<path d="M0 0 C4.05910468 1.35303489 4.9213069 3.34436731 7 7 C7 8.32 7 9.64 7 11 C6.34 11 5.68 11 5 11 C3.7109375 9.35546875 3.7109375 9.35546875 2.375 7.1875 C1.92898437 6.47980469 1.48296875 5.77210937 1.0234375 5.04296875 C0 3 0 3 0 0 Z " fill="#D6C57D" transform="translate(196,72)"/>
<path d="M0 0 C0 0.99 0 1.98 0 3 C-2.75 4.625 -2.75 4.625 -6 6 C-8.375 5.1875 -8.375 5.1875 -10 4 C-3.375 0 -3.375 0 0 0 Z " fill="#B99D51" transform="translate(179,192)"/>
<path d="M0 0 C0.99 0.33 1.98 0.66 3 1 C-0.16952847 4.26008643 -3.39937989 7.22237877 -7 10 C-6.42424336 6.64749299 -5.40693737 5.06181371 -2.9375 2.75 C-2.38964844 2.22921875 -1.84179688 1.7084375 -1.27734375 1.171875 C-0.64505859 0.59179688 -0.64505859 0.59179688 0 0 Z " fill="#9A782D" transform="translate(70,57)"/>
<path d="M0 0 C5.04424468 0.44508041 7.44443409 2.60980925 11 6 C11 6.66 11 7.32 11 8 C7.63833578 7.40501518 5.78840322 6.25635842 3.25 4 C2.63640625 3.46375 2.0228125 2.9275 1.390625 2.375 C0.93171875 1.92125 0.4728125 1.4675 0 1 C0 0.67 0 0.34 0 0 Z " fill="#482400" transform="translate(193,50)"/>
<path d="M0 0 C2.88437779 1.29299694 4.87219421 2.65941363 7 5 C6.34 6.32 5.68 7.64 5 9 C4.16094435 7.87926138 3.32892169 6.75325453 2.5 5.625 C2.0359375 4.99851562 1.571875 4.37203125 1.09375 3.7265625 C0 2 0 2 0 0 Z " fill="#B69A50" transform="translate(190,65)"/>
<path d="M0 0 C-2.3129482 2.3129482 -3.47904875 2.49580975 -6.625 3.125 C-7.44226563 3.29257812 -8.25953125 3.46015625 -9.1015625 3.6328125 C-10.04128906 3.81457031 -10.04128906 3.81457031 -11 4 C-6.99509003 -0.13840697 -5.70470474 -1.35111428 0 0 Z " fill="#B7A565" transform="translate(95,45)"/>
<path d="M0 0 C8.57142857 0.85714286 8.57142857 0.85714286 12 3 C12 3.33 12 3.66 12 4 C7.12335991 4.34833144 4.22949995 3.41685712 0 1 C0 0.67 0 0.34 0 0 Z " fill="#CBB873" transform="translate(148,40)"/>
<path d="M0 0 C2.625 0.9375 2.625 0.9375 5 2 C5 2.99 5 3.98 5 5 C1.73045798 4.43628586 0.17424117 3.50037734 -2 1 C-1.34 0.67 -0.68 0.34 0 0 Z " fill="#A98737" transform="translate(81,195)"/>
<path d="M0 0 C2.62187494 1.04874998 3.79371361 1.64931313 5.25 4.125 C5.4975 4.74375 5.745 5.3625 6 6 C4.68 6 3.36 6 2 6 C0 3 0 3 0 0 Z " fill="#A7873A" transform="translate(54,169)"/>
<path d="M0 0 C0.99 0 1.98 0 3 0 C3.99 1.98 4.98 3.96 6 6 C5.34 6 4.68 6 4 6 C3.67 6.66 3.34 7.32 3 8 C0 2.25 0 2.25 0 0 Z " fill="#957328" transform="translate(50,163)"/>
<path d="M0 0 C2.31 0 4.62 0 7 0 C6.67 0.99 6.34 1.98 6 3 C4.35 3 2.7 3 1 3 C0.67 2.01 0.34 1.02 0 0 Z " fill="#A68334" transform="translate(109,207)"/>
<path d="M0 0 C0.33 0 0.66 0 1 0 C1.125 5.75 1.125 5.75 0 8 C-0.66 8 -1.32 8 -2 8 C-1.125 1.125 -1.125 1.125 0 0 Z " fill="#E2D387" transform="translate(212,137)"/>
<path d="M0 0 C0.66 0 1.32 0 2 0 C1.67 2.97 1.34 5.94 1 9 C0.01 8.34 -0.98 7.68 -2 7 C-1.34 4.69 -0.68 2.38 0 0 Z " fill="#AA914C" transform="translate(45,93)"/>
<path d="M0 0 C2.86697492 1.28519565 4.97607712 2.57129254 7 5 C7 5.66 7 6.32 7 7 C4.13302508 5.71480435 2.02392288 4.42870746 0 2 C0 1.34 0 0.68 0 0 Z " fill="#5A3300" transform="translate(50,187)"/>
<path d="M0 0 C0.33 0.66 0.66 1.32 1 2 C1.66 2 2.32 2 3 2 C2.34 3.65 1.68 5.3 1 7 C0.34 7 -0.32 7 -1 7 C-0.67 4.69 -0.34 2.38 0 0 Z " fill="#AF9248" transform="translate(207,149)"/>
<path d="M0 0 C0.99 0.66 1.98 1.32 3 2 C-1.625 5 -1.625 5 -5 5 C-5 4.34 -5 3.68 -5 3 C-2.5 1.375 -2.5 1.375 0 0 Z " fill="#B0944C" transform="translate(83,48)"/>
</svg>
